<?xml version="1.0" encoding="UTF-8"?>
<!DOCTYPE svg PUBLIC "-//W3C//DTD SVG 1.1//EN" "http://www.w3.org/Graphics/SVG/1.1/DTD/svg11.dtd">
<svg xmlns="http://www.w3.org/2000/svg" version="1.1" width="2481px" height="3508px" style="shape-rendering:geometricPrecision; text-rendering:geometricPrecision; image-rendering:optimizeQuality; fill-rule:evenodd; clip-rule:evenodd" xmlns:xlink="http://www.w3.org/1999/xlink">
<g><path style="opacity:0.985" fill="#2339af" d="M 623.5,1504.5 C 699.444,1501.41 763.944,1526.75 817,1580.5C 871.346,1542.58 930.513,1532.58 994.5,1550.5C 978.532,1568.76 967.532,1589.76 961.5,1613.5C 900.842,1606.58 854.009,1628.58 821,1679.5C 811.778,1695.67 806.278,1713 804.5,1731.5C 780.833,1731.5 757.167,1731.5 733.5,1731.5C 735.193,1700.39 743.859,1671.39 759.5,1644.5C 732.345,1613.25 698.012,1595.08 656.5,1590C 597.114,1586.38 547.114,1606.05 506.5,1649C 476.835,1649.5 447.169,1649.67 417.5,1649.5C 425.613,1629.55 436.447,1611.22 450,1594.5C 495.258,1540.62 553.091,1510.62 623.5,1504.5 Z"/></g>
<g><path style="opacity:0.93" fill="#211f1e" d="M 1205.5,1518.5 C 1209.17,1518.5 1212.83,1518.5 1216.5,1518.5C 1216.5,1679.83 1216.5,1841.17 1216.5,2002.5C 1212.83,2002.5 1209.17,2002.5 1205.5,2002.5C 1205.5,1841.17 1205.5,1679.83 1205.5,1518.5 Z"/></g>
<g><path style="opacity:0.991" fill="#2339af" d="M 1324.5,1552.5 C 1345.84,1552.33 1367.17,1552.5 1388.5,1553C 1392.11,1553.89 1394.61,1556.06 1396,1559.5C 1396.67,1652.83 1396.67,1746.17 1396,1839.5C 1395.6,1842.23 1394.1,1844.07 1391.5,1845C 1368.83,1845.67 1346.17,1845.67 1323.5,1845C 1321.67,1844.5 1320.5,1843.33 1320,1841.5C 1319.33,1746.83 1319.33,1652.17 1320,1557.5C 1321.02,1555.31 1322.52,1553.65 1324.5,1552.5 Z"/></g>
<g><path style="opacity:0.986" fill="#2339af" d="M 1419.5,1552.5 C 1492.5,1552.33 1565.5,1552.5 1638.5,1553C 1640.94,1553.77 1642.77,1555.27 1644,1557.5C 1644.67,1576.83 1644.67,1596.17 1644,1615.5C 1643.22,1617.29 1642.05,1618.79 1640.5,1620C 1616.23,1621.47 1591.9,1621.97 1567.5,1621.5C 1567.67,1694.17 1567.5,1766.83 1567,1839.5C 1565.88,1841.62 1564.38,1843.46 1562.5,1845C 1540.5,1845.67 1518.5,1845.67 1496.5,1845C 1494,1843.83 1492.17,1842 1491,1839.5C 1490.5,1766.83 1490.33,1694.17 1490.5,1621.5C 1467.5,1621.67 1444.5,1621.5 1421.5,1621C 1417.47,1620.57 1414.97,1618.41 1414,1614.5C 1413.33,1595.83 1413.33,1577.17 1414,1558.5C 1415.36,1555.98 1417.19,1553.98 1419.5,1552.5 Z"/></g>
<g><path style="opacity:0.984" fill="#221f1f" d="M 1779.5,1650.5 C 1749.83,1650.5 1720.17,1650.5 1690.5,1650.5C 1678.3,1620.39 1666.96,1589.89 1656.5,1559C 1655.75,1555.49 1657.08,1553.49 1660.5,1553C 1687.5,1552.33 1714.5,1552.33 1741.5,1553C 1744.2,1553.69 1746.36,1555.19 1748,1557.5C 1758.61,1588.49 1769.11,1619.49 1779.5,1650.5 Z"/></g>
<g><path style="opacity:0.987" fill="#233aae" d="M 1842.5,1839.5 C 1831.99,1809.31 1821.66,1778.98 1811.5,1748.5C 1809.97,1744.56 1808.63,1740.56 1807.5,1736.5C 1808.93,1736.12 1809.76,1735.12 1810,1733.5C 1828,1675.5 1846,1617.5 1864,1559.5C 1865.12,1557.38 1866.62,1555.54 1868.5,1554C 1893.44,1552.36 1918.44,1552.03 1943.5,1553C 1944.93,1553.47 1946.1,1554.3 1947,1555.5C 1947.67,1558.5 1947.67,1561.5 1947,1564.5C 1935.4,1597.13 1923.9,1629.8 1912.5,1662.5C 1920.97,1687.25 1929.64,1711.92 1938.5,1736.5C 1959.99,1676.84 1981.49,1617.18 2003,1557.5C 2004.64,1555.19 2006.8,1553.69 2009.5,1553C 2032.83,1552.33 2056.17,1552.33 2079.5,1553C 2080.93,1553.47 2082.1,1554.3 2083,1555.5C 2083.67,1558.17 2083.67,1560.83 2083,1563.5C 2046,1655.83 2009,1748.17 1972,1840.5C 1970.46,1842.38 1968.62,1843.88 1966.5,1845C 1947.17,1845.67 1927.83,1845.67 1908.5,1845C 1906.67,1843.83 1905.17,1842.33 1904,1840.5C 1894.05,1813.31 1883.72,1786.31 1873,1759.5C 1863.12,1786.31 1852.95,1812.98 1842.5,1839.5 Z"/></g>
<g><path style="opacity:0.986" fill="#211f1e" d="M 1038.5,1569.5 C 1093.75,1602.32 1126.92,1650.65 1138,1714.5C 1147.25,1790.12 1123.41,1852.95 1066.5,1903C 1005.69,1949.86 938.687,1961.19 865.5,1937C 825.055,1921.55 792.555,1896.05 768,1860.5C 732.935,1910.16 685.101,1939.33 624.5,1948C 551.061,1954.98 490.228,1930.81 442,1875.5C 401.008,1823.07 387.174,1764.07 400.5,1698.5C 425.167,1698.5 449.833,1698.5 474.5,1698.5C 455.912,1759.67 470.912,1810.83 519.5,1852C 567.164,1884.3 616.497,1886.96 667.5,1860C 697.956,1841.38 717.956,1814.88 727.5,1780.5C 754.5,1780.5 781.5,1780.5 808.5,1780.5C 826.273,1836.43 864.273,1868.93 922.5,1878C 978.857,1881.07 1022.02,1858.91 1052,1811.5C 1076.7,1763.86 1075.03,1717.19 1047,1671.5C 1036.5,1657 1024,1644.5 1009.5,1634C 1016.35,1611.14 1026.02,1589.64 1038.5,1569.5 Z"/></g>
<g><path style="opacity:0.994" fill="#f20907" d="M 1690.5,1650.5 C 1720.17,1650.5 1749.83,1650.5 1779.5,1650.5C 1789.04,1679.11 1798.37,1707.77 1807.5,1736.5C 1808.63,1740.56 1809.97,1744.56 1811.5,1748.5C 1783.5,1748.5 1755.5,1748.5 1727.5,1748.5C 1715.17,1715.83 1702.83,1683.17 1690.5,1650.5 Z"/></g>
<g><path style="opacity:0.991" fill="#fec403" d="M 1727.5,1748.5 C 1755.5,1748.5 1783.5,1748.5 1811.5,1748.5C 1821.66,1778.98 1831.99,1809.31 1842.5,1839.5C 1841,1841.84 1839,1843.67 1836.5,1845C 1813.08,1845.98 1789.75,1845.65 1766.5,1844C 1763.29,1839.07 1760.45,1833.91 1758,1828.5C 1748.09,1801.7 1737.93,1775.03 1727.5,1748.5 Z"/></g>
<g><path style="opacity:0.849" fill="#1d4481" d="M 1307.5,1888.5 C 1560.5,1888.5 1813.5,1888.5 2066.5,1888.5C 2066.5,1890.17 2066.5,1891.83 2066.5,1893.5C 1813.5,1893.5 1560.5,1893.5 1307.5,1893.5C 1307.5,1891.83 1307.5,1890.17 1307.5,1888.5 Z"/></g>
<g><path style="opacity:0.871" fill="#211f1e" d="M 1312.5,1927.5 C 1315.5,1927.5 1318.5,1927.5 1321.5,1927.5C 1322.34,1934.21 1323.51,1940.88 1325,1947.5C 1327.45,1941.05 1329.28,1934.38 1330.5,1927.5C 1333.17,1927.5 1335.83,1927.5 1338.5,1927.5C 1339.68,1934.22 1341.18,1940.89 1343,1947.5C 1345.13,1940.98 1346.63,1934.31 1347.5,1927.5C 1350.17,1927.5 1352.83,1927.5 1355.5,1927.5C 1352.83,1938.51 1350.16,1949.51 1347.5,1960.5C 1344.55,1960.78 1341.72,1960.44 1339,1959.5C 1337.33,1952.83 1335.67,1946.17 1334,1939.5C 1332.33,1946.17 1330.67,1952.83 1329,1959.5C 1326.28,1960.44 1323.45,1960.78 1320.5,1960.5C 1317.99,1949.46 1315.32,1938.46 1312.5,1927.5 Z"/></g>
<g><path style="opacity:0.883" fill="#211f1e" d="M 1379.5,1927.5 C 1396.74,1925.91 1403.58,1933.58 1400,1950.5C 1395.18,1960.15 1387.68,1962.99 1377.5,1959C 1371.7,1955.73 1369.03,1950.73 1369.5,1944C 1369.18,1936.13 1372.51,1930.63 1379.5,1927.5 Z M 1382.5,1933.5 C 1386.89,1932.94 1390.06,1934.61 1392,1938.5C 1392.67,1942.17 1392.67,1945.83 1392,1949.5C 1389.44,1953.21 1385.94,1954.38 1381.5,1953C 1377.87,1949.21 1376.71,1944.71 1378,1939.5C 1378.8,1936.85 1380.3,1934.85 1382.5,1933.5 Z"/></g>
<g><path style="opacity:0.909" fill="#211f1e" d="M 1418.5,1927.5 C 1424.84,1927.33 1431.18,1927.5 1437.5,1928C 1443.09,1930.4 1444.93,1934.57 1443,1940.5C 1442.53,1941.93 1441.7,1943.1 1440.5,1944C 1443.04,1949.17 1444.04,1954.67 1443.5,1960.5C 1440.83,1960.5 1438.17,1960.5 1435.5,1960.5C 1435.67,1956.82 1435.5,1953.15 1435,1949.5C 1432.17,1947.66 1429.01,1946.99 1425.5,1947.5C 1425.5,1951.83 1425.5,1956.17 1425.5,1960.5C 1423.17,1960.5 1420.83,1960.5 1418.5,1960.5C 1418.5,1949.5 1418.5,1938.5 1418.5,1927.5 Z M 1425.5,1933.5 C 1427.86,1933.34 1430.19,1933.5 1432.5,1934C 1435.47,1935.22 1436.14,1937.22 1434.5,1940C 1431.52,1940.5 1428.52,1940.66 1425.5,1940.5C 1425.5,1938.17 1425.5,1935.83 1425.5,1933.5 Z"/></g>
<g><path style="opacity:0.845" fill="#211f1e" d="M 1460.5,1927.5 C 1463.17,1927.5 1465.83,1927.5 1468.5,1927.5C 1468.33,1931.85 1468.5,1936.18 1469,1940.5C 1472.5,1936.33 1476,1932.17 1479.5,1928C 1482.88,1927.18 1486.22,1927.34 1489.5,1928.5C 1485.5,1932.83 1481.5,1937.17 1477.5,1941.5C 1482.29,1947.43 1486.29,1953.76 1489.5,1960.5C 1486.43,1960.82 1483.43,1960.48 1480.5,1959.5C 1477.49,1955.46 1474.49,1951.46 1471.5,1947.5C 1470.83,1947.83 1470.17,1948.17 1469.5,1948.5C 1468.51,1952.45 1468.18,1956.45 1468.5,1960.5C 1465.83,1960.5 1463.17,1960.5 1460.5,1960.5C 1460.5,1949.5 1460.5,1938.5 1460.5,1927.5 Z"/></g>
<g><path style="opacity:0.865" fill="#211f1e" d="M 1509.5,1927.5 C 1513.51,1927.33 1517.51,1927.5 1521.5,1928C 1525.59,1929.33 1527.92,1932.16 1528.5,1936.5C 1525.89,1937.65 1523.23,1937.82 1520.5,1937C 1518.82,1933.7 1516.15,1932.7 1512.5,1934C 1510.99,1936.45 1511.65,1938.12 1514.5,1939C 1519.8,1939.65 1524.3,1941.81 1528,1945.5C 1530.22,1952.44 1528.05,1957.27 1521.5,1960C 1514.72,1961.7 1508.88,1960.2 1504,1955.5C 1502.87,1953.65 1502.37,1951.65 1502.5,1949.5C 1505.17,1949.5 1507.83,1949.5 1510.5,1949.5C 1511.38,1953.78 1514.05,1955.28 1518.5,1954C 1521.03,1952.08 1521.03,1950.08 1518.5,1948C 1514.39,1946.97 1510.39,1945.64 1506.5,1944C 1503.68,1940.66 1502.85,1936.83 1504,1932.5C 1505.35,1930.25 1507.18,1928.58 1509.5,1927.5 Z"/></g>
<g><path style="opacity:0.912" fill="#211f1e" d="M 1545.5,1927.5 C 1547.83,1927.5 1550.17,1927.5 1552.5,1927.5C 1552.5,1931.5 1552.5,1935.5 1552.5,1939.5C 1556.5,1939.5 1560.5,1939.5 1564.5,1939.5C 1564.5,1935.5 1564.5,1931.5 1564.5,1927.5C 1567.17,1927.5 1569.83,1927.5 1572.5,1927.5C 1572.5,1938.5 1572.5,1949.5 1572.5,1960.5C 1569.83,1960.5 1567.17,1960.5 1564.5,1960.5C 1564.5,1955.83 1564.5,1951.17 1564.5,1946.5C 1560.5,1946.5 1556.5,1946.5 1552.5,1946.5C 1552.5,1951.17 1552.5,1955.83 1552.5,1960.5C 1550.17,1960.5 1547.83,1960.5 1545.5,1960.5C 1545.5,1949.5 1545.5,1938.5 1545.5,1927.5 Z"/></g>
<g><path style="opacity:0.878" fill="#211f1e" d="M 1599.5,1927.5 C 1617.24,1926.08 1624.08,1934.08 1620,1951.5C 1615.34,1959.84 1608.34,1962.5 1599,1959.5C 1592.69,1956.39 1589.52,1951.22 1589.5,1944C 1589.69,1936.44 1593.02,1930.94 1599.5,1927.5 Z M 1603.5,1933.5 C 1611.42,1934.26 1614.59,1938.6 1613,1946.5C 1611.26,1953.53 1607.09,1955.36 1600.5,1952C 1595.85,1944.76 1596.85,1938.59 1603.5,1933.5 Z"/></g>
<g><path style="opacity:0.889" fill="#211f1e" d="M 1638.5,1927.5 C 1645.59,1927.12 1652.59,1927.62 1659.5,1929C 1663.26,1932.74 1664.43,1937.24 1663,1942.5C 1661.52,1945.66 1659.02,1947.5 1655.5,1948C 1652.52,1948.5 1649.52,1948.66 1646.5,1948.5C 1646.5,1952.5 1646.5,1956.5 1646.5,1960.5C 1643.83,1960.5 1641.17,1960.5 1638.5,1960.5C 1638.5,1949.5 1638.5,1938.5 1638.5,1927.5 Z M 1646.5,1933.5 C 1649.27,1933.42 1651.94,1933.92 1654.5,1935C 1655.83,1937 1655.83,1939 1654.5,1941C 1651.85,1941.5 1649.19,1941.66 1646.5,1941.5C 1646.5,1938.83 1646.5,1936.17 1646.5,1933.5 Z"/></g>
<g><path style="opacity:0.848" fill="#211f1e" d="M 1708.5,1927.5 C 1713.63,1927.11 1718.63,1927.61 1723.5,1929C 1726.32,1931.14 1727.65,1933.97 1727.5,1937.5C 1723.41,1938.15 1720.08,1936.99 1717.5,1934C 1714.65,1933.06 1712.31,1933.73 1710.5,1936C 1716.06,1938.64 1721.56,1941.47 1727,1944.5C 1729.7,1950.31 1728.53,1955.14 1723.5,1959C 1715.87,1961.89 1709.04,1960.72 1703,1955.5C 1702.19,1953.56 1701.69,1951.56 1701.5,1949.5C 1704.25,1949.19 1706.91,1949.52 1709.5,1950.5C 1713.12,1955.51 1716.79,1955.68 1720.5,1951C 1720.36,1950.23 1720.02,1949.56 1719.5,1949C 1716.64,1947.6 1713.64,1946.6 1710.5,1946C 1700.7,1940.7 1700.03,1934.53 1708.5,1927.5 Z"/></g>
<g><path style="opacity:0.882" fill="#211f1e" d="M 1753.5,1927.5 C 1772.3,1926.72 1778.8,1935.39 1773,1953.5C 1767.21,1960.5 1760.05,1962.34 1751.5,1959C 1745.7,1955.73 1743.03,1950.73 1743.5,1944C 1743.18,1936.13 1746.51,1930.63 1753.5,1927.5 Z M 1756.5,1933.5 C 1763.29,1933.29 1766.96,1936.62 1767.5,1943.5C 1767.43,1951.7 1763.43,1954.86 1755.5,1953C 1749.94,1946.06 1750.27,1939.56 1756.5,1933.5 Z"/></g>
<g><path style="opacity:0.857" fill="#211f1e" d="M 1792.5,1927.5 C 1795.17,1927.5 1797.83,1927.5 1800.5,1927.5C 1800.5,1936.17 1800.5,1944.83 1800.5,1953.5C 1805.5,1953.5 1810.5,1953.5 1815.5,1953.5C 1815.5,1955.83 1815.5,1958.17 1815.5,1960.5C 1807.83,1960.5 1800.17,1960.5 1792.5,1960.5C 1792.5,1949.5 1792.5,1938.5 1792.5,1927.5 Z"/></g>
<g><path style="opacity:0.879" fill="#211f1e" d="M 1830.5,1927.5 C 1833.17,1927.5 1835.83,1927.5 1838.5,1927.5C 1838.33,1935.17 1838.5,1942.84 1839,1950.5C 1841.84,1955.33 1845.17,1955.66 1849,1951.5C 1849.5,1943.51 1849.67,1935.51 1849.5,1927.5C 1852.17,1927.5 1854.83,1927.5 1857.5,1927.5C 1857.92,1936.91 1857.42,1946.25 1856,1955.5C 1851.08,1960.2 1845.24,1961.7 1838.5,1960C 1835.9,1959.12 1833.73,1957.62 1832,1955.5C 1830.58,1946.25 1830.08,1936.91 1830.5,1927.5 Z"/></g>
<g><path style="opacity:0.915" fill="#211f1e" d="M 1873.5,1927.5 C 1882.5,1927.5 1891.5,1927.5 1900.5,1927.5C 1900.5,1929.83 1900.5,1932.17 1900.5,1934.5C 1897.17,1934.5 1893.83,1934.5 1890.5,1934.5C 1890.5,1943.17 1890.5,1951.83 1890.5,1960.5C 1888.17,1960.5 1885.83,1960.5 1883.5,1960.5C 1883.5,1951.83 1883.5,1943.17 1883.5,1934.5C 1880.17,1934.5 1876.83,1934.5 1873.5,1934.5C 1873.5,1932.17 1873.5,1929.83 1873.5,1927.5 Z"/></g>
<g><path style="opacity:0.879" fill="#211f1e" d="M 1915.5,1927.5 C 1918.17,1927.5 1920.83,1927.5 1923.5,1927.5C 1923.5,1938.5 1923.5,1949.5 1923.5,1960.5C 1920.83,1960.5 1918.17,1960.5 1915.5,1960.5C 1915.5,1949.5 1915.5,1938.5 1915.5,1927.5 Z"/></g>
<g><path style="opacity:0.873" fill="#211f1e" d="M 1950.5,1927.5 C 1967.24,1925.41 1974.41,1932.74 1972,1949.5C 1968.34,1958.85 1961.5,1962.35 1951.5,1960C 1944.16,1957.13 1940.5,1951.63 1940.5,1943.5C 1940.84,1936.13 1944.17,1930.8 1950.5,1927.5 Z M 1954.5,1933.5 C 1962.8,1934.4 1965.97,1939.06 1964,1947.5C 1962.54,1953.06 1959.04,1954.89 1953.5,1953C 1949.7,1948.91 1948.53,1944.08 1950,1938.5C 1951.02,1936.31 1952.52,1934.65 1954.5,1933.5 Z"/></g>
<g><path style="opacity:0.884" fill="#211f1e" d="M 1989.5,1927.5 C 1992.85,1927.33 1996.18,1927.5 1999.5,1928C 2003.13,1934.09 2006.63,1940.25 2010,1946.5C 2010.5,1940.18 2010.67,1933.84 2010.5,1927.5C 2012.83,1927.5 2015.17,1927.5 2017.5,1927.5C 2017.5,1938.5 2017.5,1949.5 2017.5,1960.5C 2014.43,1960.82 2011.43,1960.48 2008.5,1959.5C 2004.67,1952.5 2000.83,1945.5 1997,1938.5C 1996.5,1945.83 1996.33,1953.16 1996.5,1960.5C 1994.17,1960.5 1991.83,1960.5 1989.5,1960.5C 1989.5,1949.5 1989.5,1938.5 1989.5,1927.5 Z"/></g>
<g><path style="opacity:0.865" fill="#211f1e" d="M 2040.5,1927.5 C 2044.85,1927.33 2049.18,1927.5 2053.5,1928C 2057.33,1929.83 2059.67,1932.83 2060.5,1937C 2057.83,1937.67 2055.17,1937.67 2052.5,1937C 2050.82,1933.7 2048.15,1932.7 2044.5,1934C 2042.99,1936.45 2043.65,1938.12 2046.5,1939C 2051.8,1939.65 2056.3,1941.81 2060,1945.5C 2062.34,1953 2059.84,1957.83 2052.5,1960C 2046.52,1961.38 2041.19,1960.21 2036.5,1956.5C 2034.83,1954.49 2034.16,1952.16 2034.5,1949.5C 2037.17,1949.5 2039.83,1949.5 2042.5,1949.5C 2043.38,1953.78 2046.05,1955.28 2050.5,1954C 2053.03,1952.08 2053.03,1950.08 2050.5,1948C 2045.56,1947.13 2041.06,1945.3 2037,1942.5C 2034.21,1936.41 2035.37,1931.41 2040.5,1927.5 Z"/></g>
</svg>
