<?xml version="1.0" encoding="UTF-8"?>
<!DOCTYPE svg PUBLIC "-//W3C//DTD SVG 1.1//EN" "http://www.w3.org/Graphics/SVG/1.1/DTD/svg11.dtd">
<svg xmlns="http://www.w3.org/2000/svg" version="1.1" width="2482px" height="3508px" style="shape-rendering:geometricPrecision; text-rendering:geometricPrecision; image-rendering:optimizeQuality; fill-rule:evenodd; clip-rule:evenodd" xmlns:xlink="http://www.w3.org/1999/xlink">
<g><path style="opacity:0.985" fill="#fefffe" d="M 624.5,1504.5 C 700.445,1501.41 764.945,1526.75 818,1580.5C 871.916,1543.04 930.75,1532.71 994.5,1549.5C 994.649,1550.55 994.483,1551.55 994,1552.5C 978.485,1570.53 967.985,1591.19 962.5,1614.5C 902.739,1606.64 856.239,1627.64 823,1677.5C 813.247,1694.09 807.08,1711.93 804.5,1731C 780.826,1731.83 757.16,1731.67 733.5,1730.5C 736.173,1699.65 745.173,1670.82 760.5,1644C 714.265,1594.82 658.265,1578.82 592.5,1596C 559.041,1606.05 530.375,1623.72 506.5,1649C 476.828,1649.83 447.161,1649.67 417.5,1648.5C 451.788,1577.39 507.121,1531.56 583.5,1511C 597.176,1507.94 610.843,1505.77 624.5,1504.5 Z"/></g>
<g><path style="opacity:0.907" fill="#fefffe" d="M 1206.5,1518.5 C 1210.17,1518.5 1213.83,1518.5 1217.5,1518.5C 1217.5,1679.83 1217.5,1841.17 1217.5,2002.5C 1213.83,2002.5 1210.17,2002.5 1206.5,2002.5C 1206.5,1841.17 1206.5,1679.83 1206.5,1518.5 Z"/></g>
<g><path style="opacity:0.979" fill="#fefffe" d="M 1325.5,1552.5 C 1346.84,1552.33 1368.17,1552.5 1389.5,1553C 1393.33,1554.17 1395.83,1556.67 1397,1560.5C 1397.67,1653.17 1397.67,1745.83 1397,1838.5C 1396.59,1841.49 1395.09,1843.66 1392.5,1845C 1369.83,1845.67 1347.17,1845.67 1324.5,1845C 1321.44,1843.93 1319.94,1841.77 1320,1838.5C 1319.33,1745.5 1319.33,1652.5 1320,1559.5C 1320.94,1556.4 1322.77,1554.07 1325.5,1552.5 Z"/></g>
<g><path style="opacity:0.986" fill="#fefffe" d="M 1420.5,1552.5 C 1493.5,1552.33 1566.5,1552.5 1639.5,1553C 1642,1554.17 1643.83,1556 1645,1558.5C 1645.67,1577.17 1645.67,1595.83 1645,1614.5C 1644.03,1618.41 1641.53,1620.57 1637.5,1621C 1614.5,1621.5 1591.5,1621.67 1568.5,1621.5C 1568.67,1694.17 1568.5,1766.83 1568,1839.5C 1566.83,1842 1565,1843.83 1562.5,1845C 1540.83,1845.67 1519.17,1845.67 1497.5,1845C 1495.38,1843.88 1493.54,1842.38 1492,1840.5C 1491.5,1767.5 1491.33,1694.5 1491.5,1621.5C 1467.11,1621.96 1442.78,1621.46 1418.5,1620C 1416.95,1618.79 1415.78,1617.29 1415,1615.5C 1414.33,1596.17 1414.33,1576.83 1415,1557.5C 1416.73,1555.6 1418.56,1553.93 1420.5,1552.5 Z"/></g>
<g><path style="opacity:0.987" fill="#fefffe" d="M 1660.5,1552.5 C 1687.84,1552.33 1715.17,1552.5 1742.5,1553C 1744.85,1553.35 1746.68,1554.51 1748,1556.5C 1768.53,1616.43 1788.86,1676.43 1809,1736.5C 1827.38,1679.34 1845.38,1622.01 1863,1564.5C 1863.96,1558.71 1867.12,1554.87 1872.5,1553C 1897.23,1552.03 1921.9,1552.36 1946.5,1554C 1948.39,1556.92 1948.89,1560.08 1948,1563.5C 1936.64,1596.39 1925.14,1629.22 1913.5,1662C 1921.86,1687.22 1930.36,1712.39 1939,1737.5C 1960.62,1676.65 1982.62,1615.98 2005,1555.5C 2006.42,1554.54 2007.92,1553.71 2009.5,1553C 2033.9,1552.03 2058.23,1552.36 2082.5,1554C 2084.39,1556.92 2084.89,1560.08 2084,1563.5C 2046.67,1656.17 2009.33,1748.83 1972,1841.5C 1970.79,1843.05 1969.29,1844.22 1967.5,1845C 1947.41,1845.98 1927.41,1845.64 1907.5,1844C 1904.95,1839.73 1902.78,1835.23 1901,1830.5C 1892.28,1806.72 1883.28,1783.06 1874,1759.5C 1864.47,1784.42 1855.14,1809.42 1846,1834.5C 1844.22,1837.94 1842.06,1841.11 1839.5,1844C 1827.59,1845.15 1815.59,1845.65 1803.5,1845.5C 1791.41,1845.65 1779.41,1845.15 1767.5,1844C 1763.43,1838.69 1760.26,1832.86 1758,1826.5C 1723.89,1737.27 1690.05,1647.94 1656.5,1558.5C 1656.87,1555.74 1658.2,1553.74 1660.5,1552.5 Z"/></g>
<g><path style="opacity:0.987" fill="#fefffe" d="M 1039.5,1569.5 C 1104.73,1609.54 1138.73,1668.21 1141.5,1745.5C 1137.24,1834.93 1094.57,1898.09 1013.5,1935C 939.957,1961.48 871.957,1951.48 809.5,1905C 793.841,1892.01 780.341,1877.18 769,1860.5C 723.844,1922.49 662.677,1951.99 585.5,1949C 504.022,1940.2 446.189,1898.7 412,1824.5C 395.674,1783.91 392.174,1742.24 401.5,1699.5C 426.158,1698.5 450.824,1698.17 475.5,1698.5C 456.201,1762.09 472.534,1814.26 524.5,1855C 562.96,1880.21 603.96,1885.21 647.5,1870C 688.26,1853.07 715.26,1823.57 728.5,1781.5C 755.492,1780.5 782.492,1780.17 809.5,1780.5C 822.969,1826.8 852.635,1857.64 898.5,1873C 955.845,1887.33 1003.68,1872.16 1042,1827.5C 1075.98,1779.98 1079.31,1730.31 1052,1678.5C 1041.28,1660.78 1027.45,1645.94 1010.5,1634C 1016.82,1610.87 1026.49,1589.37 1039.5,1569.5 Z"/></g>
<g><path style="opacity:0.251" fill="#fefffe" d="M 1308.5,1891.5 C 1561.33,1890.33 1814.33,1890.17 2067.5,1891C 1814.5,1891.5 1561.5,1891.67 1308.5,1891.5 Z"/></g>
<g><path style="opacity:0.873" fill="#fefffe" d="M 1313.5,1927.5 C 1316.25,1927.19 1318.91,1927.52 1321.5,1928.5C 1323.45,1935.39 1324.95,1942.39 1326,1949.5C 1327.67,1942.83 1329.33,1936.17 1331,1929.5C 1333.38,1927.26 1336.04,1926.92 1339,1928.5C 1340.67,1935.17 1342.33,1941.83 1344,1948.5C 1345.66,1941.52 1347.16,1934.52 1348.5,1927.5C 1351.17,1927.5 1353.83,1927.5 1356.5,1927.5C 1353.78,1938.18 1350.94,1948.84 1348,1959.5C 1345.28,1960.44 1342.45,1960.78 1339.5,1960.5C 1338.32,1953.78 1336.82,1947.11 1335,1940.5C 1333.01,1946.78 1331.18,1953.12 1329.5,1959.5C 1326.83,1960.83 1324.17,1960.83 1321.5,1959.5C 1318.52,1948.9 1315.85,1938.24 1313.5,1927.5 Z"/></g>
<g><path style="opacity:0.886" fill="#fefffe" d="M 1379.5,1927.5 C 1396.63,1925.13 1403.8,1932.47 1401,1949.5C 1397.34,1958.85 1390.5,1962.35 1380.5,1960C 1371.21,1955.24 1368.05,1947.74 1371,1937.5C 1372,1935.5 1373,1933.5 1374,1931.5C 1376.02,1930.3 1377.85,1928.97 1379.5,1927.5 Z M 1383.5,1933.5 C 1388.42,1932.87 1391.59,1934.87 1393,1939.5C 1394.43,1944.76 1393.26,1949.26 1389.5,1953C 1384.57,1954.64 1381.07,1953.14 1379,1948.5C 1378.33,1945.17 1378.33,1941.83 1379,1938.5C 1380.02,1936.31 1381.52,1934.65 1383.5,1933.5 Z"/></g>
<g><path style="opacity:0.874" fill="#fefffe" d="M 1418.5,1927.5 C 1424.84,1927.33 1431.18,1927.5 1437.5,1928C 1442.07,1929.24 1444.4,1932.24 1444.5,1937C 1444.47,1939.9 1443.47,1942.4 1441.5,1944.5C 1441.81,1945.31 1442.31,1945.97 1443,1946.5C 1443.35,1951.2 1443.85,1955.86 1444.5,1960.5C 1441.83,1960.5 1439.17,1960.5 1436.5,1960.5C 1436.85,1956.36 1436.35,1952.36 1435,1948.5C 1432.28,1947.56 1429.45,1947.22 1426.5,1947.5C 1426.5,1951.83 1426.5,1956.17 1426.5,1960.5C 1423.83,1960.5 1421.17,1960.5 1418.5,1960.5C 1418.5,1949.5 1418.5,1938.5 1418.5,1927.5 Z M 1426.5,1933.5 C 1429.61,1933.35 1432.61,1933.85 1435.5,1935C 1436.83,1936.67 1436.83,1938.33 1435.5,1940C 1432.52,1940.5 1429.52,1940.66 1426.5,1940.5C 1426.5,1938.17 1426.5,1935.83 1426.5,1933.5 Z"/></g>
<g><path style="opacity:0.853" fill="#fefffe" d="M 1461.5,1927.5 C 1464.17,1927.5 1466.83,1927.5 1469.5,1927.5C 1469.33,1931.51 1469.5,1935.51 1470,1939.5C 1473.87,1935.97 1477.37,1932.13 1480.5,1928C 1483.83,1927.33 1487.17,1927.33 1490.5,1928C 1485.94,1932.05 1481.94,1936.55 1478.5,1941.5C 1482.5,1947.5 1486.5,1953.5 1490.5,1959.5C 1487.55,1960.65 1484.55,1960.82 1481.5,1960C 1478.33,1955.5 1475.17,1951 1472,1946.5C 1471.33,1947.17 1470.67,1947.83 1470,1948.5C 1469.5,1952.49 1469.33,1956.49 1469.5,1960.5C 1466.83,1960.5 1464.17,1960.5 1461.5,1960.5C 1461.5,1949.5 1461.5,1938.5 1461.5,1927.5 Z"/></g>
<g><path style="opacity:0.86" fill="#fefffe" d="M 1509.5,1927.5 C 1514.63,1927.11 1519.63,1927.61 1524.5,1929C 1527.84,1930.89 1529.18,1933.73 1528.5,1937.5C 1525.83,1937.5 1523.17,1937.5 1520.5,1937.5C 1520.85,1934.51 1519.51,1933.18 1516.5,1933.5C 1513.31,1933.19 1512.14,1934.52 1513,1937.5C 1518.36,1939.07 1523.36,1941.4 1528,1944.5C 1531.8,1955.21 1527.97,1960.54 1516.5,1960.5C 1508.95,1961.07 1504.28,1957.73 1502.5,1950.5C 1505.11,1949.35 1507.77,1949.18 1510.5,1950C 1512.38,1953.77 1515.38,1955.11 1519.5,1954C 1522.17,1952 1522.17,1950 1519.5,1948C 1514.01,1947.17 1509.17,1945.01 1505,1941.5C 1503.31,1935.61 1504.81,1930.94 1509.5,1927.5 Z"/></g>
<g><path style="opacity:0.863" fill="#fefffe" d="M 1545.5,1927.5 C 1548.17,1927.5 1550.83,1927.5 1553.5,1927.5C 1553.5,1931.5 1553.5,1935.5 1553.5,1939.5C 1557.5,1939.5 1561.5,1939.5 1565.5,1939.5C 1565.5,1935.5 1565.5,1931.5 1565.5,1927.5C 1568.17,1927.5 1570.83,1927.5 1573.5,1927.5C 1573.5,1938.5 1573.5,1949.5 1573.5,1960.5C 1570.83,1960.5 1568.17,1960.5 1565.5,1960.5C 1565.5,1955.83 1565.5,1951.17 1565.5,1946.5C 1561.5,1946.5 1557.5,1946.5 1553.5,1946.5C 1553.5,1951.17 1553.5,1955.83 1553.5,1960.5C 1550.83,1960.5 1548.17,1960.5 1545.5,1960.5C 1545.5,1949.5 1545.5,1938.5 1545.5,1927.5 Z"/></g>
<g><path style="opacity:0.883" fill="#fefffe" d="M 1600.5,1927.5 C 1619.3,1926.72 1625.8,1935.39 1620,1953.5C 1614.21,1960.5 1607.05,1962.34 1598.5,1959C 1592.7,1955.73 1590.03,1950.73 1590.5,1944C 1590.18,1936.13 1593.51,1930.63 1600.5,1927.5 Z M 1603.5,1933.5 C 1610.29,1933.29 1613.96,1936.62 1614.5,1943.5C 1614.43,1951.7 1610.43,1954.86 1602.5,1953C 1596.94,1946.06 1597.27,1939.56 1603.5,1933.5 Z"/></g>
<g><path style="opacity:0.876" fill="#fefffe" d="M 1639.5,1927.5 C 1645.51,1927.33 1651.51,1927.5 1657.5,1928C 1664.05,1930.73 1666.22,1935.56 1664,1942.5C 1659.84,1947.73 1654.34,1949.73 1647.5,1948.5C 1647.5,1952.5 1647.5,1956.5 1647.5,1960.5C 1644.83,1960.5 1642.17,1960.5 1639.5,1960.5C 1639.5,1949.5 1639.5,1938.5 1639.5,1927.5 Z M 1647.5,1933.5 C 1650.27,1933.42 1652.94,1933.92 1655.5,1935C 1657.03,1937.33 1656.7,1939.33 1654.5,1941C 1652.19,1941.5 1649.86,1941.66 1647.5,1941.5C 1647.5,1938.83 1647.5,1936.17 1647.5,1933.5 Z"/></g>
<g><path style="opacity:0.855" fill="#fefffe" d="M 1709.5,1927.5 C 1714.63,1927.11 1719.63,1927.61 1724.5,1929C 1726.78,1931.4 1728.12,1934.23 1728.5,1937.5C 1724.41,1938.15 1721.08,1936.99 1718.5,1934C 1716.5,1933.33 1714.5,1933.33 1712.5,1934C 1711.17,1935.33 1711.17,1936.67 1712.5,1938C 1718.02,1939.12 1723.02,1941.29 1727.5,1944.5C 1730.54,1950.13 1729.54,1954.97 1724.5,1959C 1716.87,1961.89 1710.04,1960.72 1704,1955.5C 1702.87,1953.65 1702.37,1951.65 1702.5,1949.5C 1705.25,1949.19 1707.91,1949.52 1710.5,1950.5C 1714.05,1955.48 1717.72,1955.65 1721.5,1951C 1720.95,1950.08 1720.29,1949.24 1719.5,1948.5C 1714.31,1947.33 1709.48,1945.33 1705,1942.5C 1702.07,1936.08 1703.57,1931.08 1709.5,1927.5 Z"/></g>
<g><path style="opacity:0.886" fill="#fefffe" d="M 1753.5,1927.5 C 1771.13,1925.3 1778.3,1932.97 1775,1950.5C 1769.28,1960.63 1761.12,1963.13 1750.5,1958C 1744.79,1952.33 1742.96,1945.5 1745,1937.5C 1746.98,1933.36 1749.81,1930.03 1753.5,1927.5 Z M 1757.5,1933.5 C 1761.89,1932.94 1765.06,1934.61 1767,1938.5C 1768.47,1944.08 1767.3,1948.91 1763.5,1953C 1758.57,1954.64 1755.07,1953.14 1753,1948.5C 1751.37,1942.35 1752.87,1937.35 1757.5,1933.5 Z"/></g>
<g><path style="opacity:0.928" fill="#fefffe" d="M 1793.5,1927.5 C 1795.83,1927.5 1798.17,1927.5 1800.5,1927.5C 1800.5,1936.17 1800.5,1944.83 1800.5,1953.5C 1805.83,1953.5 1811.17,1953.5 1816.5,1953.5C 1816.68,1955.59 1816.35,1957.59 1815.5,1959.5C 1808.2,1960.5 1800.86,1960.83 1793.5,1960.5C 1793.5,1949.5 1793.5,1938.5 1793.5,1927.5 Z"/></g>
<g><path style="opacity:0.902" fill="#fefffe" d="M 1831.5,1927.5 C 1833.83,1927.5 1836.17,1927.5 1838.5,1927.5C 1838.1,1935.59 1838.6,1943.59 1840,1951.5C 1843.83,1955.66 1847.16,1955.33 1850,1950.5C 1850.5,1942.84 1850.67,1935.17 1850.5,1927.5C 1853.17,1927.5 1855.83,1927.5 1858.5,1927.5C 1858.67,1935.84 1858.5,1944.17 1858,1952.5C 1855.6,1958.2 1851.27,1960.87 1845,1960.5C 1838.99,1961.17 1834.65,1958.84 1832,1953.5C 1831.5,1944.84 1831.33,1936.17 1831.5,1927.5 Z"/></g>
<g><path style="opacity:0.872" fill="#fefffe" d="M 1874.5,1927.5 C 1883.5,1927.5 1892.5,1927.5 1901.5,1927.5C 1901.5,1929.83 1901.5,1932.17 1901.5,1934.5C 1898.17,1934.5 1894.83,1934.5 1891.5,1934.5C 1891.5,1943.17 1891.5,1951.83 1891.5,1960.5C 1888.83,1960.5 1886.17,1960.5 1883.5,1960.5C 1883.5,1951.83 1883.5,1943.17 1883.5,1934.5C 1880.5,1934.5 1877.5,1934.5 1874.5,1934.5C 1874.5,1932.17 1874.5,1929.83 1874.5,1927.5 Z"/></g>
<g><path style="opacity:0.879" fill="#fefffe" d="M 1916.5,1927.5 C 1919.17,1927.5 1921.83,1927.5 1924.5,1927.5C 1924.5,1938.5 1924.5,1949.5 1924.5,1960.5C 1921.83,1960.5 1919.17,1960.5 1916.5,1960.5C 1916.5,1949.5 1916.5,1938.5 1916.5,1927.5 Z"/></g>
<g><path style="opacity:0.876" fill="#fefffe" d="M 1951.5,1927.5 C 1967.4,1925.57 1974.57,1932.57 1973,1948.5C 1968.06,1960.49 1959.56,1963.65 1947.5,1958C 1940.7,1950.12 1939.87,1941.62 1945,1932.5C 1946.97,1930.45 1949.13,1928.78 1951.5,1927.5 Z M 1955.5,1933.5 C 1963.42,1934.26 1966.59,1938.6 1965,1946.5C 1963.26,1953.53 1959.09,1955.36 1952.5,1952C 1948.04,1944.8 1949.04,1938.63 1955.5,1933.5 Z"/></g>
<g><path style="opacity:0.888" fill="#fefffe" d="M 1990.5,1927.5 C 1993.9,1927.18 1997.23,1927.51 2000.5,1928.5C 2004,1934.83 2007.5,1941.17 2011,1947.5C 2011.5,1940.84 2011.67,1934.17 2011.5,1927.5C 2013.83,1927.5 2016.17,1927.5 2018.5,1927.5C 2018.5,1938.5 2018.5,1949.5 2018.5,1960.5C 2015.22,1960.78 2012.06,1960.45 2009,1959.5C 2005.33,1952.5 2001.67,1945.5 1998,1938.5C 1997.5,1945.83 1997.33,1953.16 1997.5,1960.5C 1995.17,1960.5 1992.83,1960.5 1990.5,1960.5C 1990.5,1949.5 1990.5,1938.5 1990.5,1927.5 Z"/></g>
<g><path style="opacity:0.859" fill="#fefffe" d="M 2041.5,1927.5 C 2046.63,1927.11 2051.63,1927.61 2056.5,1929C 2059.32,1931.14 2060.65,1933.97 2060.5,1937.5C 2057.83,1937.5 2055.17,1937.5 2052.5,1937.5C 2052.67,1936.18 2052.34,1935.01 2051.5,1934C 2048.35,1932.97 2045.68,1933.63 2043.5,1936C 2049.06,1938.64 2054.56,1941.47 2060,1944.5C 2063.8,1955.21 2059.97,1960.54 2048.5,1960.5C 2040.95,1961.07 2036.28,1957.73 2034.5,1950.5C 2037.11,1949.35 2039.77,1949.18 2042.5,1950C 2044.38,1953.77 2047.38,1955.11 2051.5,1954C 2054.17,1952 2054.17,1950 2051.5,1948C 2046.01,1947.17 2041.17,1945.01 2037,1941.5C 2034.81,1935.59 2036.31,1930.93 2041.5,1927.5 Z"/></g>
</svg>
